# xmcd CD database file
#
# Track frame offsets:
#	150
#	19638
#	40390
#	63628
#	80713
#	100595
#	112265
#	128653
#	148633
#	168270
#	192813
#	217400
#	228948
#
# Disc length: 3549 seconds
#
# Revision: 0
# Processed by: cddbd v1.5.1PL0 Copyright (c) Steve Scherf et al.
# Submitted via: CDex 1.51
#
DISCID=b90ddb0d
DTITLE=Stephane Grappelli - Steff and Slam
DYEAR=1986
DGENRE=Jazz
TTITLE0=I would do anything for you
TTITLE1=Deed i do
TTITLE2=As time goes by
TTITLE3=You are the cream in my coffee
TTITLE4=I'll never be the same
TTITLE5=Sysmo
TTITLE6=It's only a papermoon
TTITLE7=You are driving me crazy
TTITLE8=It had to be you
TTITLE9=My blue heaven
TTITLE10=Autumn in New York
TTITLE11=Flonville
TTITLE12=Sweet and lovely
EXTD=YEAR: 1986
EXTT0=
EXTT1=
EXTT2=
EXTT3=
EXTT4=
EXTT5=
EXTT6=
EXTT7=
EXTT8=
EXTT9=
EXTT10=
EXTT11=
EXTT12=
PLAYORDER=
